<?xml version="1.0" standalone="no"?>
<!DOCTYPE svg PUBLIC "-//W3C//DTD SVG 20010904//EN"
 "http://www.w3.org/TR/2001/REC-SVG-20010904/DTD/svg10.dtd">
<svg version="1.0" xmlns="http://www.w3.org/2000/svg"
 width="200.000000pt" height="200.000000pt" viewBox="0 0 200.000000 200.000000"
 preserveAspectRatio="xMidYMid meet">

<g transform="translate(0.000000,200.000000) scale(0.100000,-0.100000)"
fill="#000000" stroke="none">
<path d="M405 1251 c-78 -20 -166 -101 -185 -170 -27 -98 -5 -186 65 -258 104
-107 260 -108 362 -1 66 69 91 180 59 268 -12 33 -13 34 -24 14 -8 -15 -8 -32
0 -62 22 -87 -27 -190 -111 -236 -127 -69 -287 3 -321 143 -43 181 148 331
314 247 52 -26 86 -26 64 1 -36 44 -154 72 -223 54z"/>
<path d="M393 1136 l-93 -61 0 -87 c0 -49 2 -88 5 -88 9 0 183 118 188 127 2
5 1 44 -2 89 l-6 81 -92 -61z m87 -41 l0 -64 -76 -52 c-42 -28 -78 -48 -82
-44 -3 3 -8 34 -10 68 l-3 62 78 51 c43 28 81 50 86 47 4 -2 7 -33 7 -68z"/>
<path d="M443 1093 c-16 -6 -17 -33 -3 -33 11 0 26 28 19 34 -2 2 -10 1 -16
-1z"/>
<path d="M358 1058 c-16 -11 -28 -28 -28 -39 0 -22 20 -25 39 -6 10 9 15 9 18
0 6 -16 33 -5 33 14 0 9 -6 13 -14 10 -10 -4 -16 2 -18 18 l-3 24 -27 -21z"/>
<path d="M618 1162 c-64 -18 -71 -27 -33 -44 14 -6 27 -23 30 -39 4 -16 10
-29 14 -29 8 0 45 62 60 103 12 32 11 32 -71 9z"/>
<path d="M1090 1005 c0 -93 0 -95 26 -101 85 -21 167 42 118 91 -13 12 -14 19
-5 28 36 36 -9 77 -86 77 l-53 0 0 -95z m95 40 c0 -13 -8 -21 -22 -23 -19 -3
-23 1 -23 23 0 22 4 26 23 23 14 -2 22 -10 22 -23z m-1 -61 c26 -10 19 -43
-10 -50 -31 -8 -48 7 -39 35 6 21 21 26 49 15z"/>
<path d="M1313 1050 c-46 -19 -59 -95 -21 -130 30 -28 101 -25 106 4 3 15 0
18 -21 12 -28 -7 -57 1 -57 15 0 5 20 9 45 9 43 0 45 1 45 28 0 46 -52 80 -97
62z m55 -47 c2 -8 -6 -13 -22 -13 -25 0 -33 10 -19 24 10 10 36 3 41 -11z"/>
<path d="M1650 1052 c-52 -16 -69 -93 -30 -132 19 -19 88 -29 103 -14 14 15
-6 33 -32 28 -18 -4 -32 0 -40 10 -12 14 -8 16 33 16 54 0 65 14 44 56 -13 28
-50 45 -78 36z m40 -47 c0 -9 -9 -15 -25 -15 -24 0 -32 10 -18 23 12 13 43 7
43 -8z"/>
<path d="M1440 975 c0 -68 2 -75 20 -75 18 0 20 7 20 60 0 52 2 60 19 60 23 0
31 -19 31 -76 0 -37 3 -44 20 -44 18 0 20 7 20 56 0 82 -10 94 -75 94 l-55 0
0 -75z"/>
<path d="M403 946 l-93 -63 75 -32 c41 -18 78 -31 83 -29 20 8 181 114 182
119 0 7 -135 69 -148 68 -4 0 -49 -28 -99 -63z"/>
<path d="M1763 934 c-8 -21 13 -42 28 -27 13 13 5 43 -11 43 -6 0 -13 -7 -17
-16z"/>
</g>
</svg>
